<svg width="80" height="80" viewBox="0 0 80 80" fill="none" xmlns="http://www.w3.org/2000/svg">
<g clip-path="url(#clip0_2196_21)">
<path d="M38.68 75C47.3583 75 54.36 75.7889 54.36 76.6765C54.36 77.564 47.3583 78.353 38.68 78.353C30.0018 78.353 23 77.564 23 76.6765C23 75.7889 30.1004 75 38.68 75Z" fill="#069CF5"/>
<path fill-rule="evenodd" clip-rule="evenodd" d="M50 3.70732C44.8678 3.70732 40.7073 7.86779 40.7073 13C40.7073 18.1322 44.8678 22.2927 50 22.2927C55.1322 22.2927 59.2927 18.1322 59.2927 13C59.2927 7.86779 55.1322 3.70732 50 3.70732ZM39 13C39 6.92487 43.9249 2 50 2C56.0751 2 61 6.92487 61 13C61 19.0751 56.0751 24 50 24C43.9249 24 39 19.0751 39 13Z" fill="white" stroke="white" stroke-width="0.8" stroke-linecap="round" stroke-linejoin="round"/>
<path d="M44.8239 15.7453C44.7249 15.5472 44.6258 15.349 44.7249 15.1509C44.7249 14.9528 44.8239 14.8537 44.923 14.7547C45.0221 14.6556 45.2202 14.5565 45.4183 14.5565C45.6165 14.5565 45.8146 14.6556 46.0127 14.7547C46.3099 15.1509 46.6071 15.349 47.0034 15.5472C47.3996 15.7453 47.7959 15.8444 48.2912 15.9434L48.6875 15.8444C48.7865 15.7453 48.8856 15.7453 48.8856 15.7453C48.8856 15.7453 48.9847 15.7453 48.9847 15.6462C48.9847 15.6462 48.9847 15.6462 49.0837 15.5472C49.0837 15.5472 49.1828 15.4481 49.2819 15.349C49.2819 15.349 49.2819 15.25 49.3809 15.25C49.3809 15.25 49.3809 15.1509 49.48 15.0518C49.48 14.9528 49.48 14.9528 49.48 14.8537C49.48 14.7547 49.48 14.7547 49.48 14.6556L49.3809 14.3584L49.2819 14.2593L49.1828 14.1603C48.8856 13.9621 48.5884 13.8631 48.2912 13.764C47.994 13.6649 47.6968 13.5659 47.3996 13.4668C47.1024 13.3677 46.8052 13.2687 46.508 13.0705C46.2108 12.9715 46.0127 12.6743 45.7155 12.3771C45.5174 12.0799 45.3193 11.7827 45.3193 11.3864C45.3193 10.9902 45.3193 10.5939 45.5174 10.2967C45.6165 9.90046 45.9136 9.60327 46.1118 9.30607C46.409 9.00888 46.7062 8.81075 47.1024 8.81075C47.5978 8.71168 48.1921 8.71168 48.6875 8.81075C49.1828 8.90981 49.6781 9.10794 50.1734 9.30607C50.3716 9.5042 50.5697 9.60327 50.5697 9.90046C50.5697 10.0986 50.5697 10.2967 50.4706 10.3958C50.3716 10.4949 50.2725 10.693 50.0744 10.693C49.8762 10.792 49.6781 10.693 49.3809 10.5939C49.0837 10.3958 48.7865 10.2967 48.4893 10.2967C48.1921 10.2967 47.7959 10.2967 47.4987 10.2967C47.4987 10.2967 47.3996 10.2967 47.3996 10.3958C47.3996 10.3958 47.3006 10.3958 47.3006 10.4949C47.2015 10.5939 47.1024 10.792 47.0034 10.8911C46.9043 10.9902 46.9043 11.1883 46.9043 11.3864C46.9043 11.3864 46.9043 11.4855 47.0034 11.5846C47.0034 11.6836 47.1024 11.6836 47.1024 11.6836L47.2015 11.7827C47.4987 11.9808 47.7959 12.0799 48.1921 12.179C48.5884 12.278 48.8856 12.3771 49.1828 12.4762C49.48 12.5752 49.7772 12.7734 50.0744 12.9715C50.3716 13.1696 50.5697 13.4668 50.7678 13.8631C51.065 14.5565 51.065 15.25 50.8669 15.8444C50.6688 16.4388 50.2725 16.9341 49.6781 17.3303C49.48 17.4294 49.3809 17.5285 49.1828 17.6275C48.9847 17.7266 48.7865 17.7266 48.5884 17.7266C47.8949 17.7266 47.3006 17.5285 46.6071 17.2313C45.7155 16.736 45.2202 16.3397 44.8239 15.7453Z" fill="#C4D600"/>
<path fill-rule="evenodd" clip-rule="evenodd" d="M54.6053 8.25839C55.0745 8.35341 55.3778 8.81082 55.2828 9.28002L53.6978 17.1062C53.6027 17.5754 53.1453 17.8787 52.6761 17.7837C52.2069 17.6886 51.9036 17.2312 51.9986 16.762L53.5837 8.93589C53.6787 8.46669 54.1361 8.16336 54.6053 8.25839Z" fill="#C4D600"/>
<path fill-rule="evenodd" clip-rule="evenodd" d="M76.3796 35.4896C76.9806 35.6471 77.3401 36.262 77.1826 36.863C76.5861 39.1389 74.4541 40.0124 72.681 40.3217C70.8525 40.6406 68.9169 40.4652 67.8669 40.2515C67.258 40.1276 66.8649 39.5337 66.9888 38.9248C67.1127 38.316 67.7067 37.9229 68.3155 38.0468C69.161 38.2188 70.8058 38.3648 72.2944 38.1052C73.8384 37.8359 74.7603 37.2309 75.0062 36.2926C75.1637 35.6916 75.7786 35.3321 76.3796 35.4896Z" fill="white"/>
<path d="M67.834 36.9635C68.6054 39.5348 68.734 42.1061 68.3483 44.4203C67.1912 52.3915 60.6343 58.5627 58.7058 60.234C58.3201 60.4912 58.1915 61.0054 58.3201 61.3911L59.7343 71.4193C59.7343 71.5479 59.6058 71.805 59.4772 71.805H49.449C49.0633 71.805 48.6776 71.5479 48.6776 71.1622L47.3919 66.0195C47.2634 65.6338 47.0062 65.5053 46.6205 65.5053H33.5067C33.2496 65.5053 32.9925 65.6338 32.8639 65.891L30.2926 71.1622C30.0355 71.5479 29.6498 71.805 29.2641 71.805H18.9787C18.9787 71.805 18.8502 71.805 18.8502 71.6765L20.1358 62.5482L67.834 36.9635Z" fill="#069CF5"/>
<path fill-rule="evenodd" clip-rule="evenodd" d="M26.9526 19.6935C27.5896 19.3693 28.3666 19.1501 29.1196 18.9937C29.9593 18.8193 30.8565 18.706 31.6682 18.6314C32.4827 18.5566 33.2282 18.5194 33.7694 18.5008C34.0406 18.4915 34.2617 18.4868 34.4162 18.4844C34.4934 18.4833 34.5541 18.4827 34.596 18.4824L34.6447 18.4821L34.658 18.4821L34.6631 18.4821C34.6633 18.4821 34.6638 18.4821 34.6638 19.607L34.6631 18.4821C35.2844 18.4821 35.7888 18.9857 35.7888 19.607C35.7888 20.2283 35.2852 20.7319 34.664 20.732C34.664 20.732 34.6641 20.732 34.664 20.732L34.662 20.732L34.6526 20.732L34.6123 20.7322C34.576 20.7325 34.5214 20.733 34.4505 20.7341C34.3086 20.7363 34.1019 20.7406 33.8467 20.7494C33.3353 20.767 32.6344 20.8021 31.874 20.8719C31.1107 20.942 30.3044 21.0456 29.5772 21.1966C28.8311 21.3516 28.2501 21.5404 27.8871 21.7446C27.8247 21.7797 27.7591 21.8087 27.6913 21.8313C27.1636 22.0072 26.2253 22.1448 25.5115 21.431C24.3827 20.3022 20.4585 17.1165 13.0058 18.6707C13.7249 19.6053 14.6218 20.9025 15.3853 22.2971C16.0125 23.4427 16.5809 24.7097 16.8764 25.9392C17.1668 27.1473 17.2335 28.4871 16.6341 29.6399C16.5986 29.7081 16.5563 29.7724 16.5078 29.8319C16.5078 29.832 16.5078 29.8318 16.5078 29.8319L16.5062 29.8338L16.4991 29.8426L16.4687 29.8804C16.4414 29.9144 16.4005 29.9658 16.3476 30.033C16.2418 30.1674 16.0887 30.3648 15.9023 30.6126C15.5289 31.1092 15.0252 31.8044 14.5031 32.5992C13.4316 34.2304 12.3933 36.119 12.1145 37.5505C11.9983 38.2219 11.6432 38.771 11.126 39.1361C10.6238 39.4906 10.0297 39.6313 9.46477 39.6313H6.37918C5.97194 39.6313 5.7042 39.899 5.7042 40.3062V50.9773C5.7042 51.3845 5.97194 51.6522 6.37918 51.6522H11.2647C12.4638 51.6522 13.4041 52.2685 14.0717 53.103C14.0959 53.1333 14.1185 53.1648 14.1395 53.1974C14.6962 54.0635 15.6612 55.4327 16.7596 56.7014C17.8848 58.0008 19.0256 59.0464 19.9346 59.4564C21.149 59.9556 21.57 61.1735 21.3738 62.2221L20.1333 70.6801H29.264C29.2683 70.6801 29.2724 70.68 29.2762 70.6799C29.278 70.6763 29.2797 70.6726 29.2815 70.669L31.8577 65.3879C32.2032 64.6968 32.8859 64.3803 33.5067 64.3803H46.7491C47.7077 64.3803 48.2835 65.0302 48.5267 65.5165C48.5634 65.5899 48.592 65.6671 48.6119 65.7467L49.8452 70.6801H58.6225L57.3347 61.5483C57.3274 61.4962 57.3237 61.4437 57.3237 61.3912C57.3237 61.0853 57.3729 60.7488 57.4699 60.4336C57.562 60.1341 57.7297 59.7478 58.0389 59.4386C58.0483 59.4292 58.0579 59.4199 58.0676 59.4109C58.0754 59.4036 58.0832 59.3965 58.0912 59.3895C59.6683 58.0016 64.3975 53.5333 66.4828 47.5686C67.5162 44.6128 67.8904 41.3181 66.9342 37.8425C65.9777 34.3659 63.6614 30.6042 59.1352 26.7647C58.6614 26.3628 58.6031 25.6529 59.005 25.1791C59.4069 24.7053 60.1168 24.647 60.5906 25.0489C65.3854 29.1162 68.0029 33.2452 69.1035 37.2457C70.2043 41.247 69.7589 45.0154 68.6067 48.3111C66.3537 54.7553 61.3612 59.4996 59.6505 61.0142C59.6421 61.0323 59.6314 61.0592 59.6203 61.0952C59.5961 61.1737 59.5816 61.2587 59.5761 61.33L60.9768 71.2623C60.9842 71.3143 60.9878 71.3668 60.9878 71.4193C60.9878 71.9765 60.6343 72.93 59.6058 72.93H49.5776C48.5449 72.93 47.962 72.187 47.7389 71.518C47.7298 71.4907 47.7218 71.463 47.7148 71.4351L46.5136 66.6302H33.7549L31.3301 71.6013C30.9922 72.488 30.1249 72.93 29.264 72.93H18.9787C18.7497 72.93 18.5032 72.8695 18.2804 72.721C18.0646 72.5771 17.9348 72.3934 17.86 72.2439C17.7875 72.0987 17.7568 71.9672 17.7425 71.8815C17.7349 71.836 17.7307 71.7956 17.7283 71.7622C17.7277 71.7535 17.7272 71.7452 17.7268 71.7372C17.7264 71.7296 17.7261 71.7223 17.7258 71.7154L17.7253 71.695L17.7252 71.6855L17.7252 71.6809L17.7252 71.6787C17.7252 71.6781 17.7252 71.6765 18.8501 71.6765L17.7252 71.6765C17.7252 71.6219 17.7292 71.5673 17.7371 71.5132L19.1513 61.8707C19.1541 61.8515 19.1575 61.8324 19.1613 61.8134C19.1839 61.7001 19.1644 61.6275 19.1501 61.597C19.1433 61.5825 19.1363 61.5738 19.1295 61.5674C19.1231 61.5613 19.108 61.5488 19.0752 61.5357C19.062 61.5304 19.049 61.5249 19.0361 61.5192C17.6334 60.8958 16.2093 59.503 15.0587 58.1741C13.8975 56.833 12.8862 55.4031 12.2815 54.4676C11.9325 54.0478 11.5978 53.9021 11.2647 53.9021H6.37918C4.72935 53.9021 3.45428 52.6271 3.45428 50.9773V40.3062C3.45428 38.6564 4.72934 37.3813 6.37918 37.3813H9.46477C9.67129 37.3813 9.78431 37.3292 9.82849 37.298C9.8487 37.2837 9.85933 37.2711 9.86679 37.2592C9.87417 37.2474 9.88866 37.2199 9.89792 37.1643C9.89945 37.1551 9.9011 37.1459 9.90286 37.1368C10.2701 35.2269 11.5434 33.0068 12.6226 31.3639C13.1773 30.5195 13.7101 29.7844 14.1041 29.2604C14.3014 28.9981 14.4646 28.7876 14.5793 28.6418C14.6184 28.5921 14.6519 28.5499 14.6792 28.5157C14.8792 28.0607 14.9103 27.3864 14.6888 26.465C14.458 25.5048 13.9899 24.4335 13.4118 23.3775C12.2488 21.2531 10.7672 19.4148 10.3407 18.9882C10.1297 18.7773 10.0112 18.4911 10.0112 18.1928C10.0109 18.1847 9.99981 17.9158 10.085 17.6603C10.1389 17.4985 10.2541 17.2608 10.4997 17.0698C10.6771 16.9318 10.8677 16.8605 11.0436 16.8298C20.0752 14.3715 25.1774 17.9943 26.9526 19.6935Z" fill="white"/>
<path d="M34.6631 18.4821C34.6633 18.4821 34.6638 18.4821 34.6638 19.607L34.6631 18.4821ZM34.6631 18.4821C35.2844 18.4821 35.7888 18.9857 35.7888 19.607C35.7888 20.2283 35.2852 20.7319 34.664 20.732M34.6631 18.4821L34.658 18.4821L34.6447 18.4821L34.596 18.4824C34.5541 18.4827 34.4934 18.4833 34.4162 18.4844C34.2617 18.4868 34.0406 18.4915 33.7694 18.5008C33.2282 18.5194 32.4827 18.5566 31.6682 18.6314C30.8565 18.706 29.9593 18.8193 29.1196 18.9937C28.3666 19.1501 27.5896 19.3693 26.9526 19.6935C25.1774 17.9943 20.0752 14.3715 11.0436 16.8298C10.8677 16.8605 10.6771 16.9318 10.4997 17.0698C10.2541 17.2608 10.1389 17.4985 10.085 17.6603C9.99981 17.9158 10.0109 18.1847 10.0112 18.1928C10.0112 18.4911 10.1297 18.7773 10.3407 18.9882C10.7672 19.4148 12.2488 21.2531 13.4118 23.3775C13.9899 24.4335 14.458 25.5048 14.6888 26.465C14.9103 27.3864 14.8792 28.0607 14.6792 28.5157C14.6519 28.5499 14.6184 28.5921 14.5793 28.6418C14.4646 28.7876 14.3014 28.9981 14.1041 29.2604C13.7101 29.7844 13.1773 30.5195 12.6226 31.3639C11.5434 33.0068 10.2701 35.2269 9.90286 37.1368C9.9011 37.1459 9.89945 37.1551 9.89792 37.1643C9.88866 37.2199 9.87417 37.2474 9.86679 37.2592C9.85933 37.2711 9.8487 37.2837 9.82849 37.298C9.78431 37.3292 9.67129 37.3813 9.46477 37.3813H6.37918C4.72934 37.3813 3.45428 38.6564 3.45428 40.3062V50.9773C3.45428 52.6271 4.72935 53.9021 6.37918 53.9021H11.2647C11.5978 53.9021 11.9325 54.0478 12.2815 54.4676C12.8862 55.4031 13.8975 56.833 15.0587 58.1741C16.2093 59.503 17.6334 60.8958 19.0361 61.5192C19.049 61.5249 19.062 61.5304 19.0752 61.5357C19.108 61.5488 19.1231 61.5613 19.1295 61.5674C19.1363 61.5738 19.1433 61.5825 19.1501 61.597C19.1644 61.6275 19.1839 61.7001 19.1613 61.8134C19.1575 61.8324 19.1541 61.8515 19.1513 61.8707L17.7371 71.5132C17.7292 71.5673 17.7252 71.6219 17.7252 71.6765L18.8501 71.6765C17.7252 71.6765 17.7252 71.6781 17.7252 71.6787L17.7252 71.6809L17.7252 71.6855L17.7253 71.695L17.7258 71.7154C17.7261 71.7223 17.7264 71.7296 17.7268 71.7372C17.7272 71.7452 17.7277 71.7535 17.7283 71.7622C17.7307 71.7956 17.7349 71.836 17.7425 71.8815C17.7568 71.9672 17.7875 72.0987 17.86 72.2439C17.9348 72.3934 18.0646 72.5771 18.2804 72.721C18.5032 72.8695 18.7497 72.93 18.9787 72.93H29.264C30.1249 72.93 30.9922 72.488 31.3301 71.6013L33.7549 66.6302H46.5136L47.7148 71.4351C47.7218 71.463 47.7298 71.4907 47.7389 71.518C47.962 72.187 48.5449 72.93 49.5776 72.93H59.6058C60.6343 72.93 60.9878 71.9765 60.9878 71.4193C60.9878 71.3668 60.9842 71.3143 60.9768 71.2623L59.5761 61.33C59.5816 61.2587 59.5961 61.1737 59.6203 61.0952C59.6314 61.0592 59.6421 61.0323 59.6505 61.0142C61.3612 59.4996 66.3537 54.7553 68.6067 48.3111C69.7589 45.0154 70.2043 41.247 69.1035 37.2457C68.0029 33.2452 65.3854 29.1162 60.5906 25.0489C60.1168 24.647 59.4069 24.7053 59.005 25.1791C58.6031 25.6529 58.6614 26.3628 59.1352 26.7647C63.6614 30.6042 65.9777 34.3659 66.9342 37.8425C67.8904 41.3181 67.5162 44.6128 66.4828 47.5686C64.3975 53.5333 59.6683 58.0016 58.0912 59.3895C58.0832 59.3965 58.0754 59.4036 58.0676 59.4109C58.0579 59.4199 58.0483 59.4292 58.0389 59.4386C57.7297 59.7478 57.562 60.1341 57.4699 60.4336C57.3729 60.7488 57.3237 61.0853 57.3237 61.3912C57.3237 61.4437 57.3274 61.4962 57.3347 61.5483L58.6225 70.6801H49.8452L48.6119 65.7467C48.592 65.6671 48.5634 65.5899 48.5267 65.5165C48.2835 65.0302 47.7077 64.3803 46.7491 64.3803H33.5067C32.8859 64.3803 32.2032 64.6968 31.8577 65.3879L29.2815 70.669C29.2797 70.6726 29.278 70.6763 29.2762 70.6799C29.2724 70.68 29.2683 70.6801 29.264 70.6801H20.1333L21.3738 62.2221C21.57 61.1735 21.149 59.9556 19.9346 59.4564C19.0256 59.0464 17.8848 58.0008 16.7596 56.7014C15.6612 55.4327 14.6962 54.0635 14.1395 53.1974C14.1185 53.1648 14.0959 53.1333 14.0717 53.103C13.4041 52.2685 12.4638 51.6522 11.2647 51.6522H6.37918C5.97194 51.6522 5.7042 51.3845 5.7042 50.9773V40.3062C5.7042 39.899 5.97194 39.6313 6.37918 39.6313H9.46477C10.0297 39.6313 10.6238 39.4906 11.126 39.1361C11.6432 38.771 11.9983 38.2219 12.1145 37.5505C12.3933 36.119 13.4316 34.2304 14.5031 32.5992C15.0252 31.8044 15.5289 31.1092 15.9023 30.6126C16.0887 30.3648 16.2418 30.1674 16.3476 30.033C16.4005 29.9658 16.4414 29.9144 16.4687 29.8804L16.4991 29.8426L16.5062 29.8338L16.5078 29.8319M34.664 20.732C34.6641 20.732 34.664 20.732 34.664 20.732ZM34.664 20.732L34.662 20.732L34.6526 20.732L34.6123 20.7322C34.576 20.7325 34.5214 20.733 34.4505 20.7341C34.3086 20.7363 34.1019 20.7406 33.8467 20.7494C33.3353 20.767 32.6344 20.8021 31.874 20.8719C31.1107 20.942 30.3044 21.0456 29.5772 21.1966C28.8311 21.3516 28.2501 21.5404 27.8871 21.7446C27.8247 21.7797 27.7591 21.8087 27.6913 21.8313C27.1636 22.0072 26.2253 22.1448 25.5115 21.431C24.3827 20.3022 20.4585 17.1165 13.0058 18.6707C13.7249 19.6053 14.6218 20.9025 15.3853 22.2971C16.0125 23.4427 16.5809 24.7097 16.8764 25.9392C17.1668 27.1473 17.2335 28.4871 16.6341 29.6399C16.5986 29.7081 16.5563 29.7724 16.5078 29.8319M16.5078 29.8319C16.5078 29.8318 16.5078 29.832 16.5078 29.8319ZM49.8861 70.8382C49.8862 70.8383 49.8858 70.8377 49.8851 70.8364" stroke="white" stroke-linecap="round" stroke-linejoin="round"/>
</g>
<defs>
<clipPath id="clip0_2196_21">
<rect width="80" height="80" fill="white"/>
</clipPath>
</defs>
</svg>
