<svg width="80" height="80" viewBox="0 0 80 80" fill="none" xmlns="http://www.w3.org/2000/svg">
<path d="M66.1143 18.8914L24 61.12C44.9257 74.4457 57.3943 63.4057 63.5543 57.4514C79.36 38.8571 70.5943 25.6571 66.1257 18.9143L66.1143 18.8914Z" fill="#F0F2FF"/>
<path d="M12.6987 42.2857C13.8989 47.9784 16.7309 53.1984 20.8488 57.3082C24.9667 61.418 30.1922 64.2397 35.8873 65.4286C45.2359 67.4857 65.4644 65.8057 71.5673 42.5714C72.6157 38.2383 72.6548 33.7221 71.6816 29.3714C69.9691 21.5498 65.2195 14.7289 58.4779 10.4091C51.7362 6.08934 43.5546 4.62462 35.733 6.33716C27.9114 8.0497 21.0904 12.7992 16.7707 19.5409C12.4509 26.2826 10.9862 34.4641 12.6987 42.2857Z" stroke="#20A6FF" stroke-width="3" stroke-linecap="round"/>
<path d="M42.2857 76.8229C53.3257 76.8229 62.2743 75.68 62.2743 74.1943C62.2743 72.7086 53.3372 71.5657 42.2857 71.5657C31.2343 71.5657 22.2971 72.7086 22.2971 74.1943C22.2971 75.68 31.2457 76.8229 42.2857 76.8229Z" fill="#F7F7F7"/>
<path d="M28 37.6676L36.5548 47L56 26" stroke="#C4D600" stroke-width="5" stroke-linecap="round" stroke-linejoin="round"/>
</svg>
