<svg width="80" height="80" viewBox="0 0 80 80" fill="none" xmlns="http://www.w3.org/2000/svg">
<rect width="80" height="80" fill="white"/>
<path d="M70 17L20 51.6688L30 69L66.6647 44.7312L70 17Z" fill="#EEF0FD"/>
<path d="M32.1333 54C32.068 54 31.9972 53.9937 31.9265 53.9749C31.3169 53.8433 30.9087 53.1666 31.0176 52.4585L34.7565 29.0669C34.8708 28.3588 35.464 27.8951 36.0735 28.0204C36.6831 28.152 37.0913 28.8288 36.9824 29.5368L33.2435 52.9285C33.1455 53.5614 32.6721 54 32.1333 54Z" fill="#C4D600"/>
<path d="M27 43C28.6569 43 30 41.6569 30 40C30 38.3431 28.6569 37 27 37C25.3431 37 24 38.3431 24 40C24 41.6569 25.3431 43 27 43Z" fill="#C4D600"/>
<path d="M42 45C43.6569 45 45 43.433 45 41.5C45 39.567 43.6569 38 42 38C40.3431 38 39 39.567 39 41.5C39 43.433 40.3431 45 42 45Z" fill="#C4D600"/>
<path d="M29.4744 70C29.1638 70 28.847 69.9692 28.5364 69.9013C27.3853 69.6483 26.3986 68.9572 25.7591 67.9575L6.70738 38.0423C6.06786 37.0427 5.84859 35.8456 6.1044 34.6732C6.35412 33.5069 7.03019 32.5073 8.02906 31.8594L41.9055 9.713C42.8922 9.07125 44.0616 8.84911 45.231 9.10211L69.5146 14.4088C71.8899 14.9272 73.4126 17.309 72.901 19.7156L67.663 44.3302C67.4133 45.5026 66.7311 46.5023 65.7384 47.144L31.8619 69.2904C31.1371 69.7593 30.3149 70 29.4744 70ZM44.293 12.6872C44.1469 12.6872 44.0068 12.7304 43.885 12.8107L9.99635 34.9632C9.75882 35.1175 9.68573 35.3396 9.65528 35.4568C9.63091 35.5741 9.60655 35.8086 9.75882 36.0431L28.8105 65.9582C28.9628 66.1927 29.182 66.2729 29.2978 66.2976C29.4135 66.3285 29.6449 66.347 29.8764 66.1927L63.7589 44.0402C63.9355 43.9291 64.0573 43.7563 64.1 43.5465L69.338 18.9381C69.4293 18.5185 69.1613 18.0989 68.7472 18.0063L44.4575 12.6996C44.4088 12.6872 44.3539 12.6872 44.293 12.6872Z" fill="#20A6FF"/>
<path d="M56.5 32C59.5376 32 62 29.7614 62 27C62 24.2386 59.5376 22 56.5 22C53.4624 22 51 24.2386 51 27C51 29.7614 53.4624 32 56.5 32Z" fill="white"/>
<path d="M56.5015 34C55.9864 34 55.4518 33.9513 54.9237 33.8418C52.9612 33.4464 51.2856 32.3697 50.1968 30.7941C49.108 29.2246 48.7494 27.351 49.1732 25.526C49.5905 23.701 50.751 22.1376 52.4396 21.1217C54.1218 20.1058 56.1168 19.7651 58.0858 20.1605C62.1281 20.9757 64.7034 24.7047 63.8298 28.4703C63.0735 31.7492 59.957 34 56.5015 34ZM56.495 23.6402C55.8104 23.6402 55.1388 23.8227 54.5521 24.1755C53.7436 24.6621 53.1894 25.4104 52.9808 26.2925C52.7787 27.1685 52.9547 28.0688 53.4763 28.8231C53.9979 29.5774 54.8063 30.0945 55.7452 30.2892C57.7011 30.6846 59.5984 29.5166 60.0222 27.7099C60.4395 25.9031 59.2007 24.1086 57.2578 23.7192C57.01 23.6645 56.7492 23.6402 56.495 23.6402Z" fill="#20A6FF"/>
<path d="M30.5 77C42.9251 77 53 75.6549 53 74C53 72.3451 42.9251 71 30.5 71C18.0749 71 8 72.3451 8 74C8 75.6549 18.068 77 30.5 77Z" fill="#F5F5F5"/>
</svg>
