<svg width="80" height="80" viewBox="0 0 80 80" fill="none" xmlns="http://www.w3.org/2000/svg">
<path d="M32.2903 69.2581L70.0322 14.0968V61.53C70.0322 65.8021 66.6639 69.2581 62.5156 69.2581H32.2903Z" fill="#069CF5"/>
<path d="M61.8341 69.2258H22.1202C23.0331 68.6167 23.851 67.9826 24.2878 67.5458C25.1094 66.7242 25.6504 65.4424 25.99 64.2016C26.3381 62.9299 26.5162 61.5453 26.5162 60.3832V9.92931C26.5162 7.9079 28.0284 6.38708 29.7338 6.38708H66.776C68.4833 6.38708 70.0001 7.90994 70.0001 9.92931V60.3832C70.0001 65.3236 66.2668 69.2258 61.8341 69.2258Z" stroke="white" stroke-width="2"/>
<path d="M19.2258 69.2258C15.2653 69.2258 12 65.9223 12 61.8281V36.9613C12 35.0256 13.5369 33.4839 15.3791 33.4839H25.6348C26.068 33.4839 26.4516 33.8454 26.4516 34.3387V61.8213C26.4516 65.9228 23.1858 69.2258 19.2258 69.2258Z" stroke="white" stroke-width="2"/>
<path d="M34.0421 37.6129H63" stroke="white" stroke-width="2" stroke-linecap="round" stroke-linejoin="round"/>
<path d="M34.0421 45.5717H63" stroke="white" stroke-width="2" stroke-linecap="round" stroke-linejoin="round"/>
<path d="M34.0421 54H63" stroke="white" stroke-width="2" stroke-linecap="round" stroke-linejoin="round"/>
<path d="M32.2903 69.2581L70.0322 14.0968V61.53C70.0322 65.8021 66.6639 69.2581 62.5156 69.2581H32.2903Z" fill="#069CF5"/>
<path d="M61.8341 69.2258H22.1202C23.0331 68.6167 23.851 67.9826 24.2878 67.5458C25.1094 66.7242 25.6504 65.4424 25.99 64.2016C26.3381 62.9299 26.5162 61.5453 26.5162 60.3832V9.92931C26.5162 7.9079 28.0284 6.38708 29.7338 6.38708H66.776C68.4833 6.38708 70.0001 7.90994 70.0001 9.92931V60.3832C70.0001 65.3236 66.2668 69.2258 61.8341 69.2258Z" stroke="white" stroke-width="2"/>
<path d="M19.2258 69.2258C15.2653 69.2258 12 65.9223 12 61.8281V36.9613C12 35.0256 13.5369 33.4839 15.3791 33.4839H25.6348C26.068 33.4839 26.4516 33.8454 26.4516 34.3387V61.8213C26.4516 65.9228 23.1858 69.2258 19.2258 69.2258Z" stroke="white" stroke-width="2"/>
<path d="M34.0421 37.6129H63" stroke="white" stroke-width="2" stroke-linecap="round" stroke-linejoin="round"/>
<path d="M34.0421 45.5717H63" stroke="white" stroke-width="2" stroke-linecap="round" stroke-linejoin="round"/>
<path d="M34.0421 54H63" stroke="white" stroke-width="2" stroke-linecap="round" stroke-linejoin="round"/>
<path d="M42 77C53.5961 77 63 75.8795 63 74.5C63 73.1205 53.5961 72 42 72C30.4039 72 21 73.1205 21 74.5C21 75.8795 30.3977 77 42 77Z" fill="#069CF5"/>
<path d="M42.0137 19.5859C41.9564 18.9486 41.695 18.4544 41.2295 18.1035C40.7712 17.7526 40.1517 17.5771 39.3711 17.5771C38.569 17.5771 37.9567 17.7168 37.5342 17.9961C37.1188 18.2754 36.9111 18.6836 36.9111 19.2207C36.9111 19.6289 37.0579 19.9368 37.3516 20.1445C37.6452 20.3522 38.2288 20.5599 39.1025 20.7676L41.1006 21.2402C42.2178 21.5124 43.0163 21.8883 43.4961 22.3682C43.9688 22.8408 44.2051 23.5033 44.2051 24.3555C44.2051 25.4941 43.7933 26.3965 42.9697 27.0625C42.1533 27.7285 41.0469 28.0615 39.6504 28.0615C38.0319 28.0615 36.8252 27.7428 36.0303 27.1055C35.2354 26.4609 34.7949 25.4512 34.709 24.0762H36.5674C36.6605 24.8926 36.9469 25.4834 37.4268 25.8486C37.9137 26.2139 38.6549 26.3965 39.6504 26.3965C40.5169 26.3965 41.1722 26.2318 41.6162 25.9023C42.0674 25.5729 42.293 25.0931 42.293 24.4629C42.293 24.0618 42.1462 23.7575 41.8525 23.5498C41.5589 23.3421 40.9681 23.1344 40.0801 22.9268L38.082 22.4541C37.0007 22.1963 36.2308 21.8346 35.7725 21.3691C35.3141 20.9108 35.085 20.2663 35.085 19.4355C35.085 18.3542 35.4681 17.4984 36.2344 16.8682C37.0078 16.2308 38.0534 15.9121 39.3711 15.9121C40.7103 15.9121 41.7738 16.238 42.5615 16.8896C43.3564 17.5413 43.779 18.4401 43.8291 19.5859H42.0137Z" fill="white"/>
<path d="M47.2321 27.0685L50.7143 12.4435" stroke="#C4D600" stroke-width="2" stroke-linecap="round" stroke-linejoin="round"/>
</svg>
