<svg width="80" height="80" viewBox="0 0 80 80" fill="none" xmlns="http://www.w3.org/2000/svg">
<path d="M22.9815 56.0901V41.3603L38.3137 32.0572L41.8519 33.9953V30.8943L57.1841 21.9789L67.0124 27.7933L52.0734 36.7087V40.1974L48.5352 38.2592L32.8098 47.1747V61.5169L22.9815 56.0901Z" fill="#069CF5"/>
<path d="M40.4357 64.5803C40.3556 64.5803 40.2756 64.5803 40.1956 64.4996L4.35117 43.6006C4.19115 43.52 4.11115 43.3586 4.11115 43.1972V28.2693C4.11115 28.108 4.19115 27.9466 4.35117 27.8659L19.7131 18.9092C19.7931 18.8285 19.8731 18.8285 19.9531 18.8285C20.0331 18.8285 20.1131 18.8285 20.1931 18.9092L56.0376 39.8082C56.1976 39.8889 56.2776 40.0502 56.2776 40.2116V55.1395C56.2776 55.3008 56.1976 55.4622 56.0376 55.5429L40.6757 64.4996C40.5957 64.5803 40.5157 64.5803 40.4357 64.5803ZM28.1141 56.3498L39.9556 63.2893V61.4334L28.1141 54.4939V56.3498ZM40.9157 61.4334V63.2893L55.3175 54.8974V53.0415L40.9157 61.4334ZM28.1141 53.3643L39.9556 60.3037V58.4478L28.1141 51.5084V53.3643ZM40.9157 58.4478V60.3037L55.3175 51.9118V50.0559L40.9157 58.4478ZM28.1141 50.3787L39.9556 57.3181V55.4622L28.1141 48.5228V50.3787ZM40.9157 55.4622V57.3181L55.3175 48.9263V47.0704L40.9157 55.4622ZM17.8729 50.4594L27.154 55.8657V41.9868L17.8729 36.5805V50.4594ZM28.1141 47.3931L40.0356 54.3326V52.4767L28.1941 45.5372V47.3931H28.1141ZM40.9157 52.4767V54.3326L55.3175 45.9407V44.0848L40.9157 52.4767ZM28.1141 44.4076L39.9556 51.347V49.4911L28.1141 42.5517V44.4076ZM40.9157 49.4911V51.347L55.3175 42.9551V41.0992L40.9157 49.4911ZM5.07126 42.9551L16.9927 49.8945V48.0387L5.07126 41.0992V42.9551ZM28.4342 41.6641L40.4357 48.6842L54.8375 40.2923L42.996 33.3529L28.4342 41.6641ZM5.07126 39.9695L16.9927 46.909V45.0531L5.07126 38.1137V39.9695ZM5.07126 36.984L16.9927 43.9234V42.0675L5.07126 35.1281V36.984ZM18.3529 35.7736L27.5541 41.0992L42.1159 32.788L32.7547 27.3817L18.3529 35.7736ZM5.07126 33.9984L16.9927 40.9378V39.0013L5.07126 32.1425V33.9984ZM5.07126 31.0128L16.9927 37.9523V36.0964L5.07126 29.1569V31.0128ZM5.55132 28.35L17.3928 35.2088L31.8746 26.8169L19.9531 19.8775L5.55132 28.35Z" fill="white" stroke="white" stroke-width="0.543535" stroke-miterlimit="10"/>
<path d="M24.5937 38.033C24.4337 38.033 24.2737 37.9523 24.1936 37.7909C24.1136 37.6295 24.1136 37.3067 24.2737 37.226L24.5137 36.984L24.3537 36.6612C24.1936 36.3384 24.0336 36.0157 24.0336 35.6122C24.0336 34.9667 24.3537 34.3212 24.9937 33.9984C25.0738 33.9177 25.1538 33.9177 25.2338 33.9177C25.3938 33.9177 25.5538 33.9984 25.6338 34.1598C25.7138 34.2405 25.7138 34.4019 25.7138 34.4826C25.7138 34.6439 25.6338 34.7246 25.4738 34.8053C25.1538 34.9667 24.9937 35.2895 24.9937 35.6122C24.9937 35.8543 25.0738 36.0157 25.2338 36.1771L25.4738 36.4191L29.3143 34.1598L29.0743 33.837C28.9142 33.5143 28.7542 33.1915 28.7542 32.8687C28.7542 32.2232 29.0743 31.5777 29.6343 31.2549C30.5144 30.6901 31.5546 30.448 32.5147 30.448C33.2348 30.448 33.9549 30.6094 34.5949 30.8515L34.755 30.9321L35.4751 30.5287C35.5551 30.448 35.6351 30.448 35.7151 30.448C35.8751 30.448 36.0351 30.5287 36.1151 30.6901C36.1951 30.8515 36.1951 31.1742 36.0351 31.2549L35.7951 31.497L35.9551 31.8197C36.1151 32.1425 36.2752 32.4653 36.2752 32.8687C36.2752 33.5143 35.9551 34.1598 35.315 34.4826L34.755 34.8053C34.675 34.886 34.5949 34.886 34.5149 34.886C34.3549 34.886 34.1949 34.8053 34.1149 34.6439C34.0349 34.5632 34.0349 34.4019 34.0349 34.3212C34.0349 34.1598 34.1149 34.0791 34.2749 33.9984L34.835 33.6756C35.155 33.5143 35.315 33.1915 35.315 32.8687C35.315 32.7073 35.315 32.4653 35.075 32.3039L34.835 32.0618L30.9945 34.3212L31.2345 34.6439C31.3945 34.9667 31.5546 35.2895 31.5546 35.6122C31.5546 36.2578 31.2345 36.9033 30.6745 37.226C29.7943 37.7909 28.7542 38.033 27.7941 38.033C27.074 38.033 26.3539 37.8716 25.7138 37.6295L25.5538 37.5488L24.8337 37.9523C24.7537 37.9523 24.6737 38.033 24.5937 38.033ZM26.3539 37.0647H27.7941C28.6742 37.0647 29.4743 36.8226 30.2744 36.4191C30.5944 36.2578 30.7545 35.935 30.7545 35.6122C30.7545 35.5315 30.7545 35.2088 30.5144 34.9667L30.2744 34.7246L26.3539 37.0647ZM32.5947 31.3356C31.7146 31.3356 30.9145 31.5777 30.1944 31.9811C29.8744 32.1425 29.7143 32.4653 29.7143 32.788C29.7143 32.8687 29.7143 33.1915 29.9544 33.4336L30.1944 33.6756L34.1149 31.3356H32.5947Z" fill="#C4D600" stroke="#C4D600" stroke-width="0.543535" stroke-miterlimit="10"/>
<path d="M74.68 29.4797L38.8355 8.58072C38.7555 8.50003 38.6755 8.50003 38.5955 8.50003C38.5155 8.50003 38.4355 8.50003 38.3555 8.58072L22.9936 17.5374C22.8335 17.6181 22.7535 17.7795 22.7535 17.9409V21.2492C23.3136 21.4106 23.7137 21.6527 24.1137 21.9754L35.2351 28.4307C35.7952 28.5921 36.1952 28.8342 36.5953 29.1569V26.2521L45.8764 31.6584V34.7246C46.1965 34.8053 46.5165 34.9667 46.8365 35.2088L58.678 42.1482V44.0041L55.9577 42.471C56.0377 42.8744 56.0377 43.1972 55.9577 43.6006L58.598 45.1338V46.9897L55.4776 45.2145C55.5576 45.6179 55.5576 45.9407 55.5576 46.3441L58.598 48.1193V49.9752L55.8777 48.3614C55.8777 48.4421 55.8777 48.5228 55.8777 48.6035C55.8777 48.9263 55.8777 49.1683 55.7976 49.4104L58.598 51.0242V52.8801L55.7976 51.2663C55.8777 51.5084 55.9577 51.8311 55.9577 52.1539C55.9577 52.2346 55.9577 52.396 55.9577 52.4767L58.918 54.1712C58.998 54.2519 59.0781 54.2519 59.1581 54.2519C59.2381 54.2519 59.3181 54.2519 59.3981 54.1712L74.76 45.2145C74.92 45.1338 75 44.9724 75 44.811V29.8832C74.92 29.7218 74.84 29.5604 74.68 29.4797ZM35.6351 27.6238L23.7137 20.6844V18.8285L35.6351 25.7679V27.6238ZM36.0352 24.8803L24.1937 18.0216L38.5955 9.62971L50.437 16.5691L36.0352 24.8803ZM46.1164 30.7708L36.9153 25.4452L51.3971 17.0533L60.6783 22.4596L46.1164 30.7708ZM58.598 41.0185L46.7565 34.0791V32.2232L58.598 39.1626V41.0185ZM59.0781 38.275L47.0766 31.2549L61.6384 22.9437L73.5599 29.8832L59.0781 38.275ZM73.9599 44.4882L59.5581 52.8801V51.0242L73.9599 42.6323V44.4882ZM73.9599 41.5027L59.5581 49.8945V48.0387L73.9599 39.6468V41.5027ZM73.9599 38.5978L59.5581 46.9897V45.1338L73.9599 36.7419V38.5978ZM73.9599 35.6122L59.5581 44.0041V42.1482L73.9599 33.7563V35.6122ZM73.9599 32.6267L59.5581 41.0185V39.1626L73.9599 30.7708V32.6267Z" fill="white" stroke="white" stroke-width="0.543535" stroke-miterlimit="10"/>
<path d="M43.236 27.6238C43.076 27.6238 42.9159 27.5431 42.8359 27.3817C42.7559 27.2204 42.7559 26.8976 42.9159 26.8169L43.156 26.5748L42.9959 26.2521C42.8359 25.9293 42.6759 25.6065 42.6759 25.2031C42.6759 24.5576 42.9959 23.912 43.636 23.5893C43.716 23.5086 43.796 23.5086 43.8761 23.5086C44.0361 23.5086 44.1961 23.5893 44.2761 23.7507C44.3561 23.8313 44.3561 23.9927 44.3561 24.0734C44.3561 24.2348 44.2761 24.3155 44.1161 24.3962C43.796 24.5576 43.636 24.8803 43.636 25.2031C43.636 25.4452 43.716 25.6065 43.8761 25.7679L44.1161 26.01L47.9566 23.7507L47.7165 23.4279C47.5565 23.1051 47.3965 22.7824 47.3965 22.4596C47.3965 21.8141 47.7165 21.1685 48.2766 20.8458C49.1567 20.2809 50.1968 20.0389 51.157 20.0389C51.877 20.0389 52.5971 20.2002 53.2372 20.4423L53.3972 20.523L54.1173 20.1196C54.1973 20.0389 54.2773 20.0389 54.3574 20.0389C54.5174 20.0389 54.6774 20.1196 54.7574 20.2809C54.8374 20.4423 54.8374 20.7651 54.6774 20.8458L54.4374 21.0878L54.5974 21.4106C54.7574 21.7334 54.9174 22.0561 54.9174 22.4596C54.9174 23.1051 54.5974 23.7507 53.9573 24.0734L53.3972 24.3962C53.3172 24.4769 53.2372 24.4769 53.1572 24.4769C52.9972 24.4769 52.8372 24.3962 52.7572 24.2348C52.7572 24.0734 52.7572 23.9927 52.7572 23.8313C52.7572 23.67 52.8372 23.5893 52.9972 23.5086L53.5573 23.1858C53.8773 23.0244 54.0373 22.7017 54.0373 22.3789C54.0373 22.2175 54.0373 21.9754 53.7973 21.8141L53.5573 21.572L49.7168 23.8313L49.9568 24.1541C50.1168 24.4769 50.2768 24.7996 50.2768 25.1224C50.2768 25.7679 49.9568 26.4135 49.3967 26.7362C48.5166 27.3011 47.4765 27.5431 46.5164 27.5431C45.7963 27.5431 45.0762 27.3817 44.4361 27.1397L44.2761 27.059L43.556 27.4624C43.396 27.6238 43.316 27.6238 43.236 27.6238ZM44.9962 26.6555H46.4364C47.3165 26.6555 48.1166 26.4135 48.9167 26.01C49.2367 25.8486 49.3967 25.5259 49.3967 25.2031C49.3967 25.1224 49.3967 24.7996 49.1567 24.5576L48.9167 24.3155L44.9962 26.6555ZM51.157 21.0072C50.2768 21.0072 49.4767 21.2492 48.7567 21.6527C48.4366 21.8141 48.2766 22.1368 48.2766 22.4596C48.2766 22.5403 48.2766 22.863 48.5166 23.1051L48.7567 23.3472L52.6771 21.0072H51.157Z" fill="#C4D600" stroke="#C4D600" stroke-width="0.543535" stroke-miterlimit="10"/>
<path d="M40.8535 72.3C51.7734 72.3 60.6225 71.0977 60.6225 69.6042C60.6225 68.1201 51.7734 66.9084 40.8535 66.9084C29.9335 66.9084 21.0845 68.1107 21.0845 69.6042C21.0845 71.0977 29.9335 72.3 40.8535 72.3Z" fill="#069CF5"/>
</svg>
