<svg width="80" height="80" viewBox="0 0 80 80" fill="none" xmlns="http://www.w3.org/2000/svg">
<path d="M24.8 54.3686V41.2549L38.45 32.9726L41.6 34.698V31.9373L55.25 24L64 29.1765L50.7 37.1137V40.2196L47.55 38.4941L33.55 46.4314V59.2L24.8 54.3686Z" fill="#F5F5F5"/>
<path d="M40.3391 61.9273C40.2679 61.9273 40.1966 61.9273 40.1254 61.8555L8.21369 43.2495C8.07123 43.1776 8 43.034 8 42.8903V29.6003C8 29.4566 8.07123 29.3129 8.21369 29.2411L21.8901 21.2671C21.9614 21.1953 22.0326 21.1953 22.1038 21.1953C22.1751 21.1953 22.2463 21.1953 22.3175 21.2671L54.2292 39.8731C54.3717 39.9449 54.4429 40.0886 54.4429 40.2323V53.5223C54.4429 53.666 54.3717 53.8096 54.2292 53.8815L40.5528 61.8555C40.4816 61.9273 40.4103 61.9273 40.3391 61.9273ZM29.3694 54.5999L39.9117 60.7779V59.1257L29.3694 52.9476V54.5999ZM40.7665 59.1257V60.7779L53.5882 53.3068V51.6545L40.7665 59.1257ZM29.3694 51.9419L39.9117 58.1199V56.4676L29.3694 50.2896V51.9419ZM40.7665 56.4676V58.1199L53.5882 50.6488V48.9965L40.7665 56.4676ZM29.3694 49.2839L39.9117 55.4619V53.8096L29.3694 47.6316V49.2839ZM40.7665 53.8096V55.4619L53.5882 47.9908V46.3385L40.7665 53.8096ZM20.2518 49.3557L28.5147 54.1688V41.8127L20.2518 36.9996V49.3557ZM29.3694 46.6259L39.9829 52.8039V51.1516L29.4407 44.9736V46.6259H29.3694ZM40.7665 51.1516V52.8039L53.5882 45.3328V43.6805L40.7665 51.1516ZM29.3694 43.9679L39.9117 50.1459V48.4936L29.3694 42.3156V43.9679ZM40.7665 48.4936V50.1459L53.5882 42.6748V41.0225L40.7665 48.4936ZM8.85478 42.6748L19.4683 48.8528V47.2006L8.85478 41.0225V42.6748ZM29.6544 41.5254L40.3391 47.7753L53.1608 40.3041L42.6185 34.1261L29.6544 41.5254ZM8.85478 40.0168L19.4683 46.1948V44.5426L8.85478 38.3645V40.0168ZM8.85478 37.3588L19.4683 43.5368V41.8846L8.85478 35.7065V37.3588ZM20.6792 36.2812L28.8708 41.0225L41.835 33.6232L33.5009 28.8101L20.6792 36.2812ZM8.85478 34.7008L19.4683 40.8788V39.1547L8.85478 33.0485V34.7008ZM8.85478 32.0428L19.4683 38.2208V36.5686L8.85478 30.3905V32.0428ZM9.28217 29.6721L19.8244 35.7783L32.7173 28.3072L22.1038 22.1291L9.28217 29.6721Z" fill="#20A3FF" stroke="#20A3FF" stroke-width="0.4839" stroke-miterlimit="10"/>
<path d="M26.2353 38.2927C26.0928 38.2927 25.9503 38.2208 25.8791 38.0772C25.8079 37.9335 25.8079 37.6461 25.9503 37.5743L26.164 37.3588L26.0216 37.0714C25.8791 36.7841 25.7366 36.4967 25.7366 36.1375C25.7366 35.5628 26.0216 34.9881 26.5914 34.7008C26.6626 34.6289 26.7339 34.6289 26.8051 34.6289C26.9476 34.6289 27.09 34.7008 27.1613 34.8444C27.2325 34.9163 27.2325 35.06 27.2325 35.1318C27.2325 35.2755 27.1613 35.3473 27.0188 35.4191C26.7339 35.5628 26.5914 35.8502 26.5914 36.1375C26.5914 36.353 26.6626 36.4967 26.8051 36.6404L27.0188 36.8559L30.4379 34.8444L30.2242 34.5571C30.0818 34.2697 29.9393 33.9824 29.9393 33.695C29.9393 33.1203 30.2242 32.5456 30.7228 32.2583C31.5064 31.7554 32.4324 31.5399 33.2872 31.5399C33.9283 31.5399 34.5693 31.6836 35.1392 31.8991L35.2817 31.9709L35.9227 31.6117C35.994 31.5399 36.0652 31.5399 36.1364 31.5399C36.2789 31.5399 36.4214 31.6117 36.4926 31.7554C36.5638 31.8991 36.5638 32.1864 36.4214 32.2583L36.2077 32.4738L36.3501 32.7611C36.4926 33.0485 36.6351 33.3358 36.6351 33.695C36.6351 34.2697 36.3501 34.8444 35.7803 35.1318L35.2817 35.4191C35.2104 35.491 35.1392 35.491 35.068 35.491C34.9255 35.491 34.783 35.4191 34.7118 35.2755C34.6406 35.2036 34.6406 35.06 34.6406 34.9881C34.6406 34.8444 34.7118 34.7726 34.8543 34.7008L35.3529 34.4134C35.6378 34.2697 35.7803 33.9824 35.7803 33.695C35.7803 33.5514 35.7803 33.3358 35.5666 33.1922L35.3529 32.9767L31.9338 34.9881L32.1475 35.2755C32.2899 35.5628 32.4324 35.8502 32.4324 36.1375C32.4324 36.7122 32.1475 37.2869 31.6488 37.5743C30.8653 38.0771 29.9393 38.2927 29.0845 38.2927C28.4434 38.2927 27.8023 38.149 27.2325 37.9335L27.09 37.8616L26.4489 38.2208C26.3777 38.2208 26.3065 38.2927 26.2353 38.2927ZM27.8023 37.4306H29.0845C29.8681 37.4306 30.5804 37.2151 31.2927 36.8559C31.5776 36.7122 31.7201 36.4249 31.7201 36.1375C31.7201 36.0657 31.7201 35.7783 31.5064 35.5628L31.2927 35.3473L27.8023 37.4306ZM33.3584 32.3301C32.5749 32.3301 31.8625 32.5456 31.2215 32.9048C30.9365 33.0485 30.7941 33.3358 30.7941 33.6232C30.7941 33.695 30.7941 33.9824 31.0078 34.1979L31.2215 34.4134L34.7118 32.3301H33.3584Z" fill="#C4D600" stroke="#C4D600" stroke-width="0.4839" stroke-miterlimit="10"/>
<path d="M70.8262 30.6778L38.9145 12.0718C38.8433 12 38.7721 12 38.7008 12C38.6296 12 38.5584 12 38.4871 12.0718L24.8107 20.0458C24.6682 20.1177 24.597 20.2614 24.597 20.405V23.3504C25.0956 23.4941 25.4518 23.7096 25.8079 23.9969L35.7091 29.744C36.2077 29.8876 36.5639 30.1031 36.92 30.3905V27.8043L45.1829 32.6175V35.3473C45.4678 35.4192 45.7527 35.5628 46.0377 35.7783L56.5799 41.9564V43.6087L54.1581 42.2437C54.2293 42.6029 54.2293 42.8903 54.1581 43.2495L56.5087 44.6144V46.2667L53.7307 44.6862C53.8019 45.0454 53.8019 45.3328 53.8019 45.692L56.5087 47.2724V48.9247L54.0868 47.4879C54.0868 47.5598 54.0868 47.6316 54.0868 47.7034C54.0868 47.9908 54.0868 48.2063 54.0156 48.4218L56.5087 49.8586V51.5108L54.0156 50.0741C54.0868 50.2896 54.1581 50.5769 54.1581 50.8643C54.1581 50.9361 54.1581 51.0798 54.1581 51.1516L56.7936 52.6602C56.8649 52.7321 56.9361 52.7321 57.0073 52.7321C57.0785 52.7321 57.1498 52.7321 57.221 52.6602L70.8975 44.6862C71.0399 44.6144 71.1112 44.4707 71.1112 44.327V31.037C71.0399 30.8934 70.9687 30.7497 70.8262 30.6778ZM36.0653 29.0256L25.4518 22.8475V21.1952L36.0653 27.3733V29.0256ZM36.4214 26.5831L25.8792 20.4769L38.7008 13.0057L49.2431 19.1838L36.4214 26.5831ZM45.3966 31.8273L37.205 27.086L50.0979 19.6148L58.3607 24.428L45.3966 31.8273ZM56.5087 40.9507L45.9664 34.7726V33.1203L56.5087 39.2984V40.9507ZM56.9361 38.5082L46.2514 32.2583L59.2155 24.859L69.829 31.037L56.9361 38.5082ZM70.1851 44.0397L57.3635 51.5108V49.8586L70.1851 42.3874V44.0397ZM70.1851 41.3817L57.3635 48.8528V47.2006L70.1851 39.7294V41.3817ZM70.1851 38.7955L57.3635 46.2667V44.6144L70.1851 37.1433V38.7955ZM70.1851 36.1375L57.3635 43.6087V41.9564L70.1851 34.4853V36.1375ZM70.1851 33.4795L57.3635 40.9507V39.2984L70.1851 31.8273V33.4795Z" fill="#20A3FF" stroke="#20A3FF" stroke-width="0.4839" stroke-miterlimit="10"/>
<path d="M42.8322 29.0256C42.6897 29.0256 42.5472 28.9537 42.476 28.8101C42.4048 28.6664 42.4048 28.379 42.5473 28.3072L42.7609 28.0917L42.6185 27.8043C42.476 27.517 42.3336 27.2296 42.3336 26.8704C42.3336 26.2957 42.6185 25.721 43.1883 25.4337C43.2596 25.3618 43.3308 25.3618 43.402 25.3618C43.5445 25.3618 43.687 25.4337 43.7582 25.5774C43.8294 25.6492 43.8294 25.7929 43.8294 25.8647C43.8294 26.0084 43.7582 26.0802 43.6157 26.1521C43.3308 26.2957 43.1883 26.5831 43.1883 26.8704C43.1883 27.086 43.2596 27.2296 43.402 27.3733L43.6157 27.5888L47.0348 25.5774L46.8211 25.29C46.6787 25.0027 46.5362 24.7153 46.5362 24.428C46.5362 23.8533 46.8211 23.2785 47.3198 22.9912C48.1033 22.4883 49.0293 22.2728 49.8841 22.2728C50.5252 22.2728 51.1663 22.4165 51.7361 22.632L51.8786 22.7038L52.5197 22.3447C52.5909 22.2728 52.6621 22.2728 52.7334 22.2728C52.8758 22.2728 53.0183 22.3447 53.0895 22.4883C53.1607 22.632 53.1607 22.9194 53.0183 22.9912L52.8046 23.2067L52.947 23.4941C53.0895 23.7814 53.232 24.0688 53.232 24.428C53.232 25.0027 52.947 25.5774 52.3772 25.8647L51.8786 26.1521C51.8073 26.2239 51.7361 26.2239 51.6649 26.2239C51.5224 26.2239 51.38 26.1521 51.3087 26.0084C51.3087 25.8647 51.3087 25.7929 51.3087 25.6492C51.3087 25.5055 51.38 25.4337 51.5224 25.3618L52.021 25.0745C52.306 24.9308 52.4484 24.6435 52.4484 24.3561C52.4484 24.2124 52.4484 23.9969 52.2347 23.8533L52.021 23.6377L48.6019 25.6492L48.8156 25.9365C48.9581 26.2239 49.1005 26.5113 49.1005 26.7986C49.1005 27.3733 48.8156 27.948 48.317 28.2354C47.5335 28.7382 46.6074 28.9537 45.7527 28.9537C45.1116 28.9537 44.4705 28.8101 43.9006 28.5945L43.7582 28.5227L43.1171 28.8819C42.9746 29.0256 42.9034 29.0256 42.8322 29.0256ZM44.3993 28.1635H45.6814C46.465 28.1635 47.1773 27.948 47.8896 27.5888C48.1745 27.4451 48.317 27.1578 48.317 26.8704C48.317 26.7986 48.317 26.5113 48.1033 26.2957L47.8896 26.0802L44.3993 28.1635ZM49.8841 23.1349C49.1005 23.1349 48.3882 23.3504 47.7471 23.7096C47.4622 23.8533 47.3198 24.1406 47.3198 24.428C47.3198 24.4998 47.3198 24.7871 47.5335 25.0027L47.7471 25.2182L51.2375 23.1349H49.8841Z" fill="#C4D600" stroke="#C4D600" stroke-width="0.4839" stroke-miterlimit="10"/>
<path d="M40.7111 68.8C50.4329 68.8 58.3111 67.7296 58.3111 66.4C58.3111 65.0787 50.4329 64 40.7111 64C30.9892 64 23.1111 65.0704 23.1111 66.4C23.1111 67.7296 30.9892 68.8 40.7111 68.8Z" fill="#F5F5F5"/>
</svg>
